<?xml version="1.0" encoding="utf-8"?><svg xml:space="preserve" viewBox="0 0 100 100" y="0px" x="0px" xmlns:xlink="http://www.w3.org/1999/xlink" xmlns="http://www.w3.org/2000/svg" id="圖層_1" version="1.1" width="200px" height="200px" style="width:100%;height:100%;background-size:initial;background-repeat-y:initial;background-repeat-x:initial;background-position-y:initial;background-position-x:initial;background-origin:initial;background-color:initial;background-clip:initial;background-attachment:initial;animation-play-state:paused" ><g class="ldl-scale" style="transform-origin:50% 50%;transform:rotate(0deg) scale(0.8, 0.8);animation-play-state:paused" ><g style="animation-play-state:paused" ><path d="M83,25H50v-3c0-3.866028-3.134033-7-7-7H17c-3.865967,0-7,3.133972-7,7v3v53c0,3.865967,3.134033,7,7,7h66 c3.865967,0,7-3.134033,7-7V32C90,28.133972,86.865967,25,83,25z" stroke-miterlimit="10" stroke-linejoin="round" stroke-linecap="round" stroke-width="3.5" stroke="#333435" fill="#F5E169" style="stroke:rgb(51, 52, 53);fill:rgb(252, 0, 0);animation-play-state:paused" ></path>
<path d="M83,85H17c-3.865993,0-7-3.13401-7-7V42c0-3.865993,3.134007-7,7-7h66c3.86599,0,7,3.134007,7,7v36C90,81.86599,86.86599,85,83,85z" stroke-miterlimit="10" stroke-linejoin="round" stroke-linecap="round" stroke-width="3.5" stroke="#333435" fill="#F7B26A" style="stroke:rgb(51, 52, 53);fill:rgb(255, 0, 0);animation-play-state:paused" ></path></g>
<path d="M64.475098,58.524902 c-1.367188-1.366211-3.583008-1.366211-4.950195,0L53.5,64.549805V48c0-1.933105-1.566895-3.5-3.5-3.5s-3.5,1.566895-3.5,3.5 v16.549805l-6.024902-6.024902c-1.367188-1.366211-3.583008-1.366211-4.950195,0c-1.366699,1.367188-1.366699,3.583008,0,4.950195 l12,12c0.011902,0.011902,0.026245,0.019531,0.038269,0.03125c0.152893,0.148682,0.317322,0.285278,0.495239,0.404236 c0.086853,0.058044,0.18103,0.097961,0.271667,0.147461c0.109619,0.060059,0.215027,0.126099,0.33136,0.174316 c0.114624,0.047424,0.234314,0.074707,0.352417,0.109375c0.100525,0.029724,0.196838,0.068481,0.300903,0.089172 C49.540894,76.475891,49.770325,76.5,50,76.5s0.459106-0.024109,0.685242-0.069092 c0.104065-0.020691,0.200378-0.059448,0.300903-0.089172c0.118103-0.034668,0.237793-0.061951,0.352417-0.109375 c0.116333-0.048218,0.221741-0.114258,0.33136-0.174316c0.090637-0.0495,0.184814-0.089417,0.271667-0.147461 c0.177917-0.118958,0.342346-0.255554,0.495239-0.404236c0.012024-0.011719,0.026367-0.019348,0.038269-0.03125l12-12 C65.841797,62.10791,65.841797,59.89209,64.475098,58.524902z" stroke-miterlimit="10" stroke-linecap="round" stroke-width="3.5" stroke="#333435" fill="#ACBD81" style="stroke:rgb(51, 52, 53);fill:rgb(65, 76, 175);animation-play-state:paused" ></path>
<metadata xmlns:d="https://loading.io/stock/" style="animation-play-state:paused" ><d:name style="animation-play-state:paused" >download folder</d:name>


<d:tags style="animation-play-state:paused" >folder,file,business,document,papers,report,archives,record,download</d:tags>


<d:license style="animation-play-state:paused" >by</d:license>


<d:slug style="animation-play-state:paused" >bz5lus</d:slug></metadata></g><!-- generated by https://loading.io/ --></svg>